<svg width="64" height="64" version="1.1" viewBox="0 0 16.9 16.9" xmlns="http://www.w3.org/2000/svg">
 <rect width="16.9" height="16.9" ry="1.77" fill="#ececec"/>
 <path d="m5.39 2.59c-.191 0-.389.025-.594.0749-.203.0499-.366.105-.488.165v.542h.0258c.174-.114.352-.198.534-.253.182-.0551.352-.0827.508-.0827.236-3e-7.419.057.55.171.133.112.198.268.198.467 0 .219-.0608.423-.183.612-.122.188-.349.441-.679.761-.157.153-.326.307-.508.462l-.542.465v.54h2.6v-.441h-2.07c.17-.145.354-.301.55-.47.196-.17.386-.346.571-.527.129-.126.238-.24.328-.343.0912-.103.171-.209.238-.315.0723-.114.126-.233.162-.359.0379-.127.0568-.264.0568-.41 0-.325-.112-.583-.335-.772-.224-.191-.532-.286-.927-.286zm5.79 0c-.191-3e-7-.388.0259-.593.0775-.203.0499-.366.105-.488.165v.54h.0258c.163-.107.337-.189.521-.248.184-.0585.358-.0878.521-.0878.107 0 .202.00863.287.0258s.163.0483.237.093c.0706.0447.126.102.165.173.0396.0688.0594.15.0594.243-1e-6.21-.0785.37-.235.48-.155.108-.363.163-.624.163h-.181v.428h.233c.127 0 .246.0104.356.031.11.0189.204.0552.281.109.0774.0516.138.123.181.214.0447.0895.0672.203.0672.341 0 .139-.0198.255-.0594.346-.0379.0912-.0965.174-.176.25-.0757.0706-.174.124-.297.16-.122.0361-.237.0543-.346.0543-.184 0-.375-.0319-.573-.0956-.198-.0637-.37-.143-.516-.24h-.0388v.54c.133.0602.302.115.508.165.206.0516.417.0775.63.0775.208 0 .399-.0285.573-.0853.176-.0585.328-.148.457-.268.115-.108.205-.236.268-.382.0637-.146.0956-.307.0956-.483 0-.177-.0268-.322-.0801-.434s-.122-.205-.204-.279c-.074-.0654-.164-.12-.271-.163-.107-.0447-.202-.0741-.284-.0878v-.0362c.205-.0413.382-.141.532-.299.151-.16.227-.347.227-.56 0-.157-.0319-.293-.0956-.41-.0637-.117-.157-.217-.281-.3-.115-.0757-.245-.13-.388-.165-.143-.0344-.308-.0517-.496-.0517zm-9.13.0672c-.00688.112-.0336.201-.0801.268-.0447.0654-.106.12-.186.163-.0637.0344-.158.0612-.282.0801-.124.0172-.24.0258-.348.0258v.351h.8v2.58h-.8v.392h2.08v-.392h-.784v-3.46zm12.9.0129-1.86 2.17v.594h1.84v1.08h.496v-1.08h.571v-.413h-.571v-2.35zm-.0207.614v1.73h-1.49zm-6.91.346v.735h.616v-.735zm0 2.15v.735h.616v-.735z" fill="#808080" style="white-space:pre"/>
 <g transform="matrix(.671 .869 -.869 .671 17.2 15)" stroke-linecap="round" stroke-linejoin="round">
  <path d="m-10.3 1.26h.838v9.69h-.838z" fill="#1a1a1a" stroke-width=".675"/>
  <path d="m-8.74 2.51-1.12-.602-1.13.582.226-1.25-.903-.896 1.26-.172.573-1.14.553 1.15 1.26.194-.919.88z" fill="#fc0" stroke-width=".51"/>
 </g>
 <path transform="scale(.265)" d="m44.8 48.4c-.584 0-1.17.127-1.76.381-.59.248-1.09.596-1.5 1.05-.444.482-.796 1.06-1.06 1.72-.254.66-.381 1.45-.381 2.36 0 1.67.373 2.96 1.12 3.88.749.914 1.76 1.37 3.03 1.37.762 0 1.39-.103 1.88-.312.495-.216 1.01-.541 1.55-.973v.973c0 .432-.0474.821-.143 1.17-.0952.349-.254.647-.477.895-.222.26-.532.463-.932.609-.4.146-.904.219-1.51.219-.635 0-1.27-.0845-1.9-.256-.635-.165-1.1-.306-1.39-.42h-.0938v1.83c.52.146 1.05.258 1.58.334.539.0825 1.09.123 1.66.123 1.7 0 2.96-.422 3.78-1.27.819-.844 1.23-2.17 1.23-3.97v-9.42h-1.68l-.115.457c-.463-.254-.903-.44-1.32-.561-.413-.127-.927-.191-1.54-.191zm12.3 0c-1.5 0-2.7.505-3.59 1.51-.882 1-1.32 2.37-1.32 4.1 0 1.73.44 3.1 1.32 4.1.888 1 2.09 1.5 3.59 1.5 1.49 0 2.68-.501 3.57-1.5.888-1 1.33-2.37 1.33-4.1 0-1.73-.444-3.1-1.33-4.1-.888-1.01-2.08-1.51-3.57-1.51zm-24.4.0371c-.641 0-1.29.0576-1.95.172-.66.114-1.16.219-1.51.314v1.82h.0938c.616-.235 1.21-.413 1.79-.533.578-.127 1.1-.189 1.57-.189.387 0 .758.0254 1.11.0762.355.0508.66.149.914.295.267.152.47.36.609.627.146.267.219.604.219 1.01v.275c-1.04.0508-2.01.127-2.92.229-.908.102-1.68.296-2.33.582-.641.286-1.14.678-1.49 1.18-.343.495-.514 1.15-.514 1.95 0 .984.334 1.79 1 2.43.666.635 1.48.951 2.44.951.52 0 .974-.0508 1.36-.152.387-.0952.731-.215 1.03-.361.254-.114.515-.267.781-.457.273-.197.488-.349.646-.457v1.13h1.78v-7.21c0-.685-.103-1.26-.312-1.72-.209-.463-.514-.841-.914-1.13-.406-.298-.889-.508-1.45-.629-.552-.127-1.2-.191-1.95-.191zm24.4 1.51c.958 0 1.71.335 2.25 1.01.539.666.809 1.69.809 3.07 0 1.35-.273 2.36-.818 3.04-.539.679-1.28 1.02-2.24 1.02-.965 0-1.72-.344-2.26-1.03-.539-.692-.811-1.7-.811-3.04 0-1.38.268-2.4.801-3.07.539-.673 1.29-1.01 2.27-1.01zm-12 .0664c.406 0 .813.0474 1.22.143.413.0889.856.241 1.33.457v5.8c-.438.336-.921.606-1.45.809-.52.197-1.04.295-1.56.295-.971 0-1.67-.306-2.08-.922-.419-.616-.629-1.52-.629-2.71 0-1.26.283-2.21.848-2.88.565-.66 1.34-.99 2.32-.99zm-9.51 3.74v2.96c-.444.343-.927.637-1.45.885-.52.241-1.09.361-1.72.361-.755 0-1.32-.152-1.69-.457-.368-.311-.551-.77-.551-1.38 0-.539.157-.961.475-1.27.317-.311.734-.54 1.25-.686.432-.121 1.02-.214 1.75-.277.743-.0635 1.39-.111 1.93-.143zm-27.1 2.87v2.71h2.28v-2.71h-2.28zm7.09 0v2.71h2.28v-2.71h-2.28zm7.09 0v2.71h2.28v-2.71h-2.28z" fill="#333"/>
</svg>
