<?xml version="1.0" encoding="UTF-8" standalone="no"?>
<svg
   xmlns:dc="http://purl.org/dc/elements/1.1/"
   xmlns:cc="http://creativecommons.org/ns#"
   xmlns:rdf="http://www.w3.org/1999/02/22-rdf-syntax-ns#"
   xmlns:svg="http://www.w3.org/2000/svg"
   xmlns="http://www.w3.org/2000/svg"
   xmlns:sodipodi="http://sodipodi.sourceforge.net/DTD/sodipodi-0.dtd"
   xmlns:inkscape="http://www.inkscape.org/namespaces/inkscape"
   inkscape:export-ydpi="24.000002"
   inkscape:export-xdpi="24.000002"
   inkscape:export-filename="D:\Downloads\icon_16.png"
   sodipodi:docname="07_time.svg"
   inkscape:version="1.0.2 (e86c870879, 2021-01-15, custom)"
   id="svg8"
   version="1.1"
   viewBox="0 0 16.933333 16.933334"
   height="64"
   width="64">
  <defs
     id="defs2">
    <rect
       x="-24.386055"
       y="-3.0126345"
       width="19.562287"
       height="16.898467"
       id="rect943" />
    <rect
       x="-20.681329"
       y="-3.9082826"
       width="48.853533"
       height="19.419279"
       id="rect910" />
    <rect
       id="rect848"
       height="16.906861"
       width="16.906861"
       y="0.01323625"
       x="0.01323625" />
    <filter
       style="color-interpolation-filters:sRGB;"
       inkscape:label="Drop Shadow"
       id="filter1122">
      <feFlood
         flood-opacity="1"
         flood-color="rgb(0,0,0)"
         result="flood"
         id="feFlood1112" />
      <feComposite
         in="flood"
         in2="SourceGraphic"
         operator="in"
         result="composite1"
         id="feComposite1114" />
      <feGaussianBlur
         in="composite1"
         stdDeviation="0.2"
         result="blur"
         id="feGaussianBlur1116" />
      <feOffset
         dx="0"
         dy="0"
         result="offset"
         id="feOffset1118" />
      <feComposite
         in="SourceGraphic"
         in2="offset"
         operator="over"
         result="fbSourceGraphic"
         id="feComposite1120" />
      <feColorMatrix
         result="fbSourceGraphicAlpha"
         in="fbSourceGraphic"
         values="0 0 0 -1 0 0 0 0 -1 0 0 0 0 -1 0 0 0 0 1 0"
         id="feColorMatrix1304" />
      <feFlood
         id="feFlood1306"
         flood-opacity="0.6"
         flood-color="rgb(0,0,0)"
         result="flood"
         in="fbSourceGraphic" />
      <feComposite
         in2="fbSourceGraphic"
         id="feComposite1308"
         in="flood"
         operator="in"
         result="composite1" />
      <feGaussianBlur
         id="feGaussianBlur1310"
         in="composite1"
         stdDeviation="0.2"
         result="blur" />
      <feOffset
         id="feOffset1312"
         dx="0"
         dy="0"
         result="offset" />
      <feComposite
         in2="offset"
         id="feComposite1314"
         in="fbSourceGraphic"
         operator="over"
         result="composite2" />
    </filter>
    <filter
       style="color-interpolation-filters:sRGB;"
       inkscape:label="Drop Shadow"
       id="filter1122-7">
      <feFlood
         flood-opacity="1"
         flood-color="rgb(0,0,0)"
         result="flood"
         id="feFlood1112-3" />
      <feComposite
         in="flood"
         in2="SourceGraphic"
         operator="in"
         result="composite1"
         id="feComposite1114-9" />
      <feGaussianBlur
         in="composite1"
         stdDeviation="0.2"
         result="blur"
         id="feGaussianBlur1116-3" />
      <feOffset
         dx="0"
         dy="0"
         result="offset"
         id="feOffset1118-1" />
      <feComposite
         in="SourceGraphic"
         in2="offset"
         operator="over"
         result="fbSourceGraphic"
         id="feComposite1120-1" />
      <feColorMatrix
         result="fbSourceGraphicAlpha"
         in="fbSourceGraphic"
         values="0 0 0 -1 0 0 0 0 -1 0 0 0 0 -1 0 0 0 0 1 0"
         id="feColorMatrix1316" />
      <feFlood
         id="feFlood1318"
         flood-opacity="0.6"
         flood-color="rgb(0,0,0)"
         result="flood"
         in="fbSourceGraphic" />
      <feComposite
         in2="fbSourceGraphic"
         id="feComposite1320"
         in="flood"
         operator="in"
         result="composite1" />
      <feGaussianBlur
         id="feGaussianBlur1322"
         in="composite1"
         stdDeviation="0.2"
         result="blur" />
      <feOffset
         id="feOffset1324"
         dx="0"
         dy="0"
         result="offset" />
      <feComposite
         in2="offset"
         id="feComposite1326"
         in="fbSourceGraphic"
         operator="over"
         result="composite2" />
    </filter>
    <filter
       style="color-interpolation-filters:sRGB;"
       inkscape:label="Drop Shadow"
       id="filter1122-8">
      <feFlood
         flood-opacity="1"
         flood-color="rgb(0,0,0)"
         result="flood"
         id="feFlood1112-8" />
      <feComposite
         in="flood"
         in2="SourceGraphic"
         operator="in"
         result="composite1"
         id="feComposite1114-5" />
      <feGaussianBlur
         in="composite1"
         stdDeviation="0.2"
         result="blur"
         id="feGaussianBlur1116-8" />
      <feOffset
         dx="0"
         dy="0"
         result="offset"
         id="feOffset1118-8" />
      <feComposite
         in="SourceGraphic"
         in2="offset"
         operator="over"
         result="fbSourceGraphic"
         id="feComposite1120-4" />
      <feColorMatrix
         result="fbSourceGraphicAlpha"
         in="fbSourceGraphic"
         values="0 0 0 -1 0 0 0 0 -1 0 0 0 0 -1 0 0 0 0 1 0"
         id="feColorMatrix1340" />
      <feFlood
         id="feFlood1342"
         flood-opacity="0.6"
         flood-color="rgb(0,0,0)"
         result="flood"
         in="fbSourceGraphic" />
      <feComposite
         in2="fbSourceGraphic"
         id="feComposite1344"
         in="flood"
         operator="in"
         result="composite1" />
      <feGaussianBlur
         id="feGaussianBlur1346"
         in="composite1"
         stdDeviation="0.2"
         result="blur" />
      <feOffset
         id="feOffset1348"
         dx="0"
         dy="0"
         result="offset" />
      <feComposite
         in2="offset"
         id="feComposite1350"
         in="fbSourceGraphic"
         operator="over"
         result="composite2" />
    </filter>
    <filter
       style="color-interpolation-filters:sRGB"
       inkscape:label="Drop Shadow"
       id="filter1122-2">
      <feFlood
         flood-opacity="1"
         flood-color="rgb(0,0,0)"
         result="flood"
         id="feFlood1112-7" />
      <feComposite
         in="flood"
         in2="SourceGraphic"
         operator="in"
         result="composite1"
         id="feComposite1114-7" />
      <feGaussianBlur
         in="composite1"
         stdDeviation="0.2"
         result="blur"
         id="feGaussianBlur1116-5" />
      <feOffset
         dx="0"
         dy="0"
         result="offset"
         id="feOffset1118-3" />
      <feComposite
         in="SourceGraphic"
         in2="offset"
         operator="over"
         result="composite2"
         id="feComposite1120-6" />
    </filter>
    <filter
       style="color-interpolation-filters:sRGB;"
       inkscape:label="Drop Shadow"
       id="filter1122-9">
      <feFlood
         flood-opacity="1"
         flood-color="rgb(0,0,0)"
         result="flood"
         id="feFlood1112-1" />
      <feComposite
         in="flood"
         in2="SourceGraphic"
         operator="in"
         result="composite1"
         id="feComposite1114-3" />
      <feGaussianBlur
         in="composite1"
         stdDeviation="0.2"
         result="blur"
         id="feGaussianBlur1116-7" />
      <feOffset
         dx="0"
         dy="0"
         result="offset"
         id="feOffset1118-5" />
      <feComposite
         in="SourceGraphic"
         in2="offset"
         operator="over"
         result="fbSourceGraphic"
         id="feComposite1120-68" />
      <feColorMatrix
         result="fbSourceGraphicAlpha"
         in="fbSourceGraphic"
         values="0 0 0 -1 0 0 0 0 -1 0 0 0 0 -1 0 0 0 0 1 0"
         id="feColorMatrix1328" />
      <feFlood
         id="feFlood1330"
         flood-opacity="0.6"
         flood-color="rgb(0,0,0)"
         result="flood"
         in="fbSourceGraphic" />
      <feComposite
         in2="fbSourceGraphic"
         id="feComposite1332"
         in="flood"
         operator="in"
         result="composite1" />
      <feGaussianBlur
         id="feGaussianBlur1334"
         in="composite1"
         stdDeviation="0.2"
         result="blur" />
      <feOffset
         id="feOffset1336"
         dx="0"
         dy="0"
         result="offset" />
      <feComposite
         in2="offset"
         id="feComposite1338"
         in="fbSourceGraphic"
         operator="over"
         result="composite2" />
    </filter>
    <filter
       style="color-interpolation-filters:sRGB;"
       inkscape:label="Drop Shadow"
       id="filter1122-5">
      <feFlood
         flood-opacity="1"
         flood-color="rgb(0,0,0)"
         result="flood"
         id="feFlood1112-6" />
      <feComposite
         in="flood"
         in2="SourceGraphic"
         operator="in"
         result="composite1"
         id="feComposite1114-0" />
      <feGaussianBlur
         in="composite1"
         stdDeviation="0.2"
         result="blur"
         id="feGaussianBlur1116-9" />
      <feOffset
         dx="0"
         dy="0"
         result="offset"
         id="feOffset1118-2" />
      <feComposite
         in="SourceGraphic"
         in2="offset"
         operator="over"
         result="fbSourceGraphic"
         id="feComposite1120-8" />
      <feColorMatrix
         result="fbSourceGraphicAlpha"
         in="fbSourceGraphic"
         values="0 0 0 -1 0 0 0 0 -1 0 0 0 0 -1 0 0 0 0 1 0"
         id="feColorMatrix1352" />
      <feFlood
         id="feFlood1354"
         flood-opacity="0.6"
         flood-color="rgb(0,0,0)"
         result="flood"
         in="fbSourceGraphic" />
      <feComposite
         in2="fbSourceGraphic"
         id="feComposite1356"
         in="flood"
         operator="in"
         result="composite1" />
      <feGaussianBlur
         id="feGaussianBlur1358"
         in="composite1"
         stdDeviation="0.2"
         result="blur" />
      <feOffset
         id="feOffset1360"
         dx="0"
         dy="0"
         result="offset" />
      <feComposite
         in2="offset"
         id="feComposite1362"
         in="fbSourceGraphic"
         operator="over"
         result="composite2" />
    </filter>
  </defs>
  <sodipodi:namedview
     inkscape:snap-global="false"
     inkscape:window-maximized="1"
     inkscape:window-y="-8"
     inkscape:window-x="-8"
     inkscape:window-height="1017"
     inkscape:window-width="1920"
     units="px"
     showgrid="false"
     inkscape:document-rotation="0"
     inkscape:current-layer="layer1"
     inkscape:document-units="mm"
     inkscape:cy="79.849732"
     inkscape:cx="4.7232985"
     inkscape:zoom="3.2495091"
     inkscape:pageshadow="2"
     inkscape:pageopacity="0.0"
     borderopacity="1.0"
     bordercolor="#666666"
     pagecolor="#ffffff"
     id="base" />
  <metadata
     id="metadata5">
    <rdf:RDF>
      <cc:Work
         rdf:about="">
        <dc:format>image/svg+xml</dc:format>
        <dc:type
           rdf:resource="http://purl.org/dc/dcmitype/StillImage" />
        <dc:title />
      </cc:Work>
    </rdf:RDF>
  </metadata>
  <g
     id="layer1"
     inkscape:groupmode="layer"
     inkscape:label="Layer 1">
    <rect
       style="fill:#ececec;fill-opacity:1;stroke:none;stroke-width:0.420686;stroke-linecap:round;stroke-linejoin:round;stroke-miterlimit:4;stroke-dasharray:none;stroke-opacity:1"
       id="rect989"
       width="16.933332"
       height="16.933332"
       x="0"
       y="0"
       ry="1.7718468" />
    <path
       id="path919"
       style="font-style:normal;font-weight:normal;font-size:10.5833px;line-height:1.25;font-family:sans-serif;letter-spacing:0px;word-spacing:0px;white-space:pre;fill:#808080;fill-opacity:1;stroke:none;stroke-width:0.499496"
       d="m 5.3872034,2.5858885 c -0.1910096,0 -0.3889856,0.025028 -0.593762,0.074931 -0.2030555,0.049903 -0.3656483,0.1046189 -0.4878255,0.1648476 v 0.5420858 h 0.025838 C 4.5052556,3.2541794 4.6833824,3.170121 4.8657883,3.1150551 5.0481939,3.0599891 5.217691,3.0323731 5.3742844,3.0323731 c 0.2357508,-3e-7 0.4190558,0.056959 0.5498372,0.1705321 0.1325025,0.1118526 0.1984375,0.2675411 0.1984375,0.467155 0,0.2185426 -0.060757,0.4225599 -0.1829345,0.6118489 C 5.8174474,4.4694771 5.5909919,4.7230323 5.2605963,5.0431027 5.1040027,5.1962547 4.9345058,5.3502173 4.7521002,5.5050901 L 4.2100145,5.9696614 V 6.5091631 H 6.8119227 V 6.0678464 H 4.7443487 C 4.9147089,5.9232984 5.0980136,5.7667464 5.294186,5.5981075 5.4903581,5.4277476 5.6805673,5.2522095 5.8646938,5.0715248 5.9937544,4.9459056 6.1028402,4.8316416 6.1923223,4.7283933 6.2835252,4.6251447 6.3629225,4.5198572 6.430034,4.4131671 6.5023079,4.2995937 6.5561612,4.1801515 6.5922979,4.0545326 c 0.037858,-0.12734 0.056844,-0.2640423 0.056844,-0.4103108 0,-0.325233 -0.1116748,-0.582757 -0.33538,-0.7720459 C 6.0900569,2.681166 5.7812688,2.5858885 5.3872034,2.5858885 Z m 5.7918936,0 c -0.191009,-3e-7 -0.388469,0.025891 -0.593245,0.077514 -0.203055,0.049904 -0.365648,0.10462 -0.487826,0.1648479 v 0.5395021 h 0.02584 c 0.163477,-0.1066904 0.336772,-0.1890229 0.520899,-0.2475302 0.184127,-0.058507 0.357938,-0.08785 0.521415,-0.08785 0.10669,0 0.202484,0.00863 0.286804,0.025838 0.08432,0.017208 0.1632,0.048276 0.237195,0.093017 0.07055,0.044741 0.125788,0.1020461 0.165365,0.1725994 0.03958,0.068832 0.05943,0.1499555 0.05943,0.2428793 -1e-6,0.2099387 -0.07853,0.3699423 -0.235128,0.480074 -0.154873,0.1084109 -0.362689,0.1627807 -0.624251,0.1627807 h -0.180868 v 0.4283977 h 0.232544 c 0.12734,0 0.245919,0.010356 0.356051,0.031006 0.110131,0.018929 0.203683,0.055176 0.281119,0.1085207 0.07744,0.051624 0.137846,0.1227455 0.180868,0.2139402 0.04474,0.089482 0.06718,0.2028831 0.06718,0.3405479 0,0.1393854 -0.01985,0.2550292 -0.05943,0.3462322 -0.03786,0.091203 -0.09654,0.174398 -0.1757,0.250114 -0.07571,0.07056 -0.174445,0.124063 -0.296622,0.160197 -0.122178,0.03614 -0.237305,0.05426 -0.345716,0.05426 -0.184126,0 -0.375198,-0.03194 -0.573091,-0.0956 -0.197893,-0.06367 -0.369979,-0.143414 -0.516248,-0.239779 h -0.03876 v 0.5395017 c 0.1325016,0.06023 0.3019986,0.114948 0.5084956,0.164848 0.206497,0.05163 0.416555,0.07751 0.629936,0.07751 0.208217,0 0.398773,-0.02848 0.572575,-0.08527 0.175522,-0.05851 0.328275,-0.147744 0.457336,-0.2681997 0.115297,-0.108412 0.204534,-0.236137 0.268201,-0.382406 0.06367,-0.1462687 0.0956,-0.3071353 0.0956,-0.4826578 0,-0.1772433 -0.02675,-0.3217127 -0.0801,-0.4335653 -0.05335,-0.1118526 -0.121523,-0.2045411 -0.204122,-0.2785358 -0.074,-0.065391 -0.164095,-0.1197608 -0.270785,-0.1627807 -0.10669,-0.044741 -0.201621,-0.074083 -0.28422,-0.08785 v -0.036173 c 0.204777,-0.0413 0.38204,-0.1408922 0.53175,-0.2992067 0.151431,-0.1600354 0.227377,-0.3467923 0.227377,-0.5601724 0,-0.1565937 -0.03194,-0.2932959 -0.0956,-0.4103111 C 12.279698,2.9851209 12.186146,2.8850113 12.062247,2.8024126 11.946953,2.7266968 11.817501,2.6719807 11.674674,2.6375648 11.531847,2.6031488 11.366665,2.5858885 11.179097,2.5858885 Z M 2.046839,2.6530675 C 2.039959,2.7649198 2.013202,2.8541564 1.96674,2.9212682 1.921999,2.9866592 1.8603786,3.0410289 1.7812216,3.0840489 1.7175516,3.1184659 1.6234833,3.1452189 1.4995851,3.1641469 1.3756869,3.1813549 1.2596968,3.1899849 1.151286,3.1899849 V 3.5408687 H 1.9512376 V 6.1169394 H 1.1512865 V 6.5091631 H 3.2317796 V 6.1169394 H 2.4473314 V 2.6530678 Z m 12.929442,0.012919 -1.860868,2.1678262 V 5.427575 h 1.840198 v 1.0815881 h 0.495577 V 5.4275754 h 0.570508 V 5.0146806 H 15.451188 V 2.6659869 Z m -0.02067,0.6144328 V 5.0146806 H 13.466296 Z M 8.0485397,3.6261349 V 4.3614905 H 8.6650395 V 3.6261349 Z m 0,2.1476725 V 6.5091631 H 8.6650395 V 5.7738074 Z" />
    <g
       id="g939"
       transform="matrix(0.67051582,0.86881049,-0.86881049,0.67051582,17.224231,14.972783)">
      <path
         id="rect916"
         style="fill:#1a1a1a;stroke-width:0.675175;stroke-linecap:round;stroke-linejoin:round"
         d="m -10.271274,1.2620496 h 0.8382892 v 9.6892834 h -0.8382892 z" />
      <path
         id="path914"
         style="fill:#ffcc00;stroke-width:0.510471;stroke-linecap:round;stroke-linejoin:round"
         inkscape:transform-center-x="0.12241907"
         inkscape:transform-center-y="-0.35690025"
         d="m -8.7445716,2.5055815 -1.1210461,-0.601876 -1.1313513,0.5822786 0.225999,-1.2521684 -0.903387,-0.8960434 1.26072,-0.17200675 0.5730266,-1.13606408 0.5531725,1.14586306 1.2575361,0.19391689 -0.9188408,0.88018888 z" />
    </g>
    <path
       id="path951"
       style="font-style:normal;font-weight:normal;font-size:5.15825px;line-height:1.25;font-family:sans-serif;letter-spacing:0px;word-spacing:0px;fill:#333333;fill-opacity:1;stroke:none;stroke-width:0.487397"
       d="M 44.787109 48.375 C 44.203253 48.375 43.615594 48.502009 43.025391 48.755859 C 42.435187 49.003366 41.933992 49.352149 41.521484 49.802734 C 41.077246 50.28505 40.725042 50.859032 40.464844 51.525391 C 40.210993 52.185404 40.083984 52.972857 40.083984 53.886719 C 40.083984 55.555788 40.456705 56.851275 41.199219 57.771484 C 41.948079 58.685349 42.957309 59.140625 44.226562 59.140625 C 44.988115 59.140625 45.6129 59.037561 46.101562 58.828125 C 46.596572 58.612352 47.112909 58.287015 47.652344 57.855469 L 47.652344 58.828125 C 47.652344 59.259671 47.604959 59.649002 47.509766 59.998047 C 47.414562 60.347089 47.255313 60.645069 47.033203 60.892578 C 46.811083 61.152773 46.501379 61.355988 46.101562 61.501953 C 45.701749 61.647918 45.197133 61.720703 44.587891 61.720703 C 43.953263 61.720703 43.318222 61.636182 42.683594 61.464844 C 42.048968 61.29985 41.584897 61.159164 41.292969 61.044922 L 41.199219 61.044922 L 41.199219 62.873047 C 41.719612 63.019012 42.24621 63.130886 42.779297 63.207031 C 43.318731 63.289526 43.870729 63.330078 44.435547 63.330078 C 46.136347 63.330078 47.396173 62.908507 48.214844 62.064453 C 49.033512 61.220399 49.443359 59.896091 49.443359 58.09375 L 49.443359 48.669922 L 47.767578 48.669922 L 47.652344 49.126953 C 47.189064 48.873115 46.74893 48.686998 46.330078 48.566406 C 45.91757 48.43949 45.402699 48.375 44.787109 48.375 z M 57.125 48.375 C 55.620934 48.375 54.423635 48.879614 53.535156 49.888672 C 52.653025 50.891383 52.212891 52.259657 52.212891 53.992188 C 52.212891 55.72472 52.653025 57.091039 53.535156 58.09375 C 54.423635 59.096461 55.620934 59.597656 57.125 59.597656 C 58.616374 59.597656 59.806834 59.096461 60.695312 58.09375 C 61.583791 57.091039 62.027344 55.72472 62.027344 53.992188 C 62.027344 52.259657 61.583791 50.891383 60.695312 49.888672 C 59.806834 48.879614 58.616374 48.375 57.125 48.375 z M 32.746094 48.412109 C 32.10512 48.412109 31.452981 48.469742 30.792969 48.583984 C 30.132956 48.698227 29.630295 48.803244 29.28125 48.898438 L 29.28125 50.716797 L 29.375 50.716797 C 29.990588 50.481998 30.588505 50.304186 31.166016 50.183594 C 31.743526 50.056677 32.266704 49.994141 32.736328 49.994141 C 33.123451 49.994141 33.494218 50.019541 33.849609 50.070312 C 34.205001 50.121084 34.509821 50.219269 34.763672 50.365234 C 35.030215 50.517544 35.233429 50.725645 35.373047 50.992188 C 35.519012 51.258732 35.591797 51.595792 35.591797 52.001953 L 35.591797 52.277344 C 34.551008 52.328115 33.577439 52.404316 32.669922 52.505859 C 31.762405 52.6074 30.98521 52.80231 30.337891 53.087891 C 29.696917 53.373474 29.200607 53.766224 28.851562 54.267578 C 28.508864 54.762588 28.337891 55.412773 28.337891 56.21875 C 28.337891 57.202422 28.671532 58.011859 29.337891 58.646484 C 30.004249 59.281112 30.81515 59.597656 31.773438 59.597656 C 32.293832 59.597656 32.747643 59.546856 33.134766 59.445312 C 33.521888 59.350119 33.865787 59.22995 34.164062 59.083984 C 34.417913 58.969752 34.678769 58.817341 34.945312 58.626953 C 35.218202 58.430224 35.43314 58.277815 35.591797 58.169922 L 35.591797 59.302734 L 37.371094 59.302734 L 37.371094 52.087891 C 37.371094 51.402493 37.26802 50.828511 37.058594 50.365234 C 36.849167 49.901955 36.544346 49.52435 36.144531 49.232422 C 35.73837 48.934159 35.255738 48.724108 34.697266 48.603516 C 34.14514 48.476599 33.494954 48.412109 32.746094 48.412109 z M 57.125 49.917969 C 58.083289 49.917969 58.831662 50.253076 59.371094 50.925781 C 59.910528 51.59214 60.179688 52.615049 60.179688 53.992188 C 60.179688 55.337599 59.90711 56.351712 59.361328 57.037109 C 58.821896 57.716159 58.076942 58.056641 57.125 58.056641 C 56.160369 58.056641 55.408575 57.712741 54.869141 57.027344 C 54.329709 56.335602 54.058594 55.324907 54.058594 53.992188 C 54.058594 52.615049 54.32629 51.59214 54.859375 50.925781 C 55.398809 50.253076 56.154022 49.917969 57.125 49.917969 z M 45.101562 49.984375 C 45.507726 49.984375 45.914152 50.031759 46.320312 50.126953 C 46.73282 50.215812 47.176373 50.368224 47.652344 50.583984 L 47.652344 56.380859 C 47.21445 56.717205 46.731818 56.986367 46.205078 57.189453 C 45.684683 57.38619 45.164924 57.484375 44.644531 57.484375 C 43.67355 57.484375 42.979399 57.178089 42.560547 56.5625 C 42.141692 55.946911 41.931641 55.042708 41.931641 53.849609 C 41.931641 52.593047 42.214479 51.634621 42.779297 50.974609 C 43.344115 50.314598 44.11789 49.984375 45.101562 49.984375 z M 35.591797 53.724609 L 35.591797 56.685547 C 35.147558 57.028242 34.664926 57.322804 34.144531 57.570312 C 33.624137 57.811472 33.050156 57.931641 32.421875 57.931641 C 31.666669 57.931641 31.104412 57.779232 30.736328 57.474609 C 30.368244 57.163642 30.185547 56.704945 30.185547 56.095703 C 30.185547 55.556269 30.342843 55.134698 30.660156 54.830078 C 30.97747 54.519111 31.394155 54.290497 31.908203 54.144531 C 32.33975 54.023964 32.923989 53.930658 33.660156 53.867188 C 34.40267 53.803717 35.046017 53.756332 35.591797 53.724609 z M 8.4804688 56.589844 L 8.4804688 59.302734 L 10.755859 59.302734 L 10.755859 56.589844 L 8.4804688 56.589844 z M 15.572266 56.589844 L 15.572266 59.302734 L 17.847656 59.302734 L 17.847656 56.589844 L 15.572266 56.589844 z M 22.664062 56.589844 L 22.664062 59.302734 L 24.939453 59.302734 L 24.939453 56.589844 L 22.664062 56.589844 z "
       transform="scale(0.26458333)" />
  </g>
</svg>
